<svg width="24" height="24" viewBox="0 0 24 24" fill="none" xmlns="http://www.w3.org/2000/svg">
<path opacity="0.3" fill-rule="evenodd" clip-rule="evenodd" d="M12 21C7.02944 21 3 16.9706 3 12C3 7.02944 7.02944 3 12 3C16.9706 3 21 7.02944 21 12C21 16.9706 16.9706 21 12 21Z" fill="#3445E5"/>
<path fill-rule="evenodd" clip-rule="evenodd" d="M11.963 7.5H12.0475C12.3044 7.5 12.5195 7.69465 12.545 7.95025L13 12.5L16.2481 14.356C16.4039 14.4451 16.5 14.6107 16.5 14.7902V15C16.5 15.2109 16.329 15.3819 16.1181 15.3819C16.0842 15.3819 16.0504 15.3774 16.0176 15.3684L11.3987 14.1087C11.1673 14.0456 11.0133 13.8271 11.0317 13.588L11.4645 7.96165C11.4845 7.70115 11.7017 7.5 11.963 7.5Z" fill="#3445E5"/>
</svg>
