<svg width="24" height="24" viewBox="0 0 24 24" fill="none" xmlns="http://www.w3.org/2000/svg">
<path opacity="0.3" d="M16 5.5C16 4.67157 15.3284 4 14.5 4C13.6716 4 13 4.67157 13 5.5V18.5C13 19.3284 13.6716 20 14.5 20C15.3284 20 16 19.3284 16 18.5V5.5Z" fill="white"/>
<path d="M11 10.5C11 9.67157 10.3284 9 9.5 9C8.67157 9 8 9.67157 8 10.5V18.5C8 19.3284 8.67157 20 9.5 20C10.3284 20 11 19.3284 11 18.5V10.5Z" fill="white"/>
<path d="M21 12.5C21 11.6716 20.3284 11 19.5 11C18.6716 11 18 11.6716 18 12.5V18.5C18 19.3284 18.6716 20 19.5 20C20.3284 20 21 19.3284 21 18.5V12.5Z" fill="white"/>
<path d="M6 14.5C6 13.6716 5.32843 13 4.5 13C3.67157 13 3 13.6716 3 14.5V18.5C3 19.3284 3.67157 20 4.5 20C5.32843 20 6 19.3284 6 18.5V14.5Z" fill="white"/>
</svg>
