<svg width="24" height="24" viewBox="0 0 24 24" fill="none" xmlns="http://www.w3.org/2000/svg">
<path opacity="0.6" d="M20.5 14C21.3284 14 22 13.3284 22 12.5C22 11.6715 21.3284 11 20.5 11C19.6716 11 19 11.6715 19 12.5C19 13.3284 19.6716 14 20.5 14Z" fill="#7E8299"/>
<path opacity="0.6" d="M18.8216 1.04863L3.36674 5.18973C2.83328 5.33267 2.5167 5.88101 2.65964 6.41447L3.95373 11.2441C4.09667 11.7776 4.64501 12.0942 5.17848 11.9512L20.6333 7.81011C21.1668 7.66716 21.4833 7.11883 21.3404 6.58536L20.0463 1.75573C19.9034 1.22227 19.355 0.905684 18.8216 1.04863Z" fill="#7E8299"/>
<path fill-rule="evenodd" clip-rule="evenodd" d="M22 9.33686C21.5454 9.12089 21.0368 9.00004 20.5 9.00004C18.567 9.00004 17 10.567 17 12.5C17 14.433 18.567 16 20.5 16C21.0368 16 21.5454 15.8792 22 15.6632V18C22 19.1046 21.1046 20 20 20H4C2.89543 20 2 19.1046 2 18V6.00004C2 4.89547 2.89543 4.00004 4 4.00004H20C21.1046 4.00004 22 4.89547 22 6.00004V9.33686Z" fill="#7E8299"/>
</svg>
